<svg id="Layer_6" data-name="Layer 6" xmlns="http://www.w3.org/2000/svg" viewBox="0 0 1064.17 464.77">
  <title>ASHLogo.with.words.also</title>
  <line x1="224.23" y1="67.48" x2="224.23" y2="114.22" style="fill: none;stroke: #fff;stroke-miterlimit: 10;stroke-width: 7px"/>
  <circle id="Dot" cx="224.38" cy="53.81" r="22.57" style="fill: #fff"/>
  <line x1="355.23" y1="298.25" x2="314.74" y2="274.88" style="fill: none;stroke: #fff;stroke-miterlimit: 10;stroke-width: 7px"/>
  <circle id="Dot-2" data-name="Dot" cx="371.09" cy="311.92" r="22.57" transform="translate(-84.58 477.35) rotate(-60)" style="fill: #fff"/>
  <circle id="Blue_Outer" data-name="Blue Outer" cx="294" cy="231.58" r="204.44" style="fill: #1c75bc"/>
  <circle id="White_Inner" data-name="White Inner" cx="294" cy="231.58" r="127.03" style="fill: #fff"/>
  <line x1="294.82" y1="76.39" x2="294.82" y2="123.14" style="fill: none;stroke: #fff;stroke-miterlimit: 10;stroke-width: 7px"/>
  <circle id="Dot-3" data-name="Dot" cx="294.96" cy="62.73" r="22.57" style="fill: #fff"/>
  <line x1="161.32" y1="305.73" x2="201.81" y2="282.35" style="fill: none;stroke: #fff;stroke-miterlimit: 10;stroke-width: 7px"/>
  <circle id="Dot-4" data-name="Dot" cx="145.45" cy="319.22" r="22.57" transform="translate(-140.13 115.5) rotate(-30)" style="fill: #fff"/>
  <line x1="425.81" y1="307.17" x2="385.33" y2="283.79" style="fill: none;stroke: #fff;stroke-miterlimit: 10;stroke-width: 7px"/>
  <circle id="Dot-5" data-name="Dot" cx="441.68" cy="320.83" r="22.57" transform="translate(-57 542.94) rotate(-60)" style="fill: #fff"/>
  <text transform="translate(189.7 247.53) scale(1 1.2)" style="font-size: 93px;fill: #ef4136;font-family: Fenix BlackletterCaps"><tspan style="letter-spacing: -3px">A</tspan><tspan x="108.44" y="0">S</tspan></text>
  <text transform="translate(215.23 304.92) scale(1.1 0.95)" style="font-size: 68px;fill: #1c75bc;font-family: Roboto;letter-spacing: 2.7272726681606843px">HUB</text>
  <text transform="translate(561.74 317.05) scale(1.1 0.95)" style="font-size: 65px;fill: #1c75bc;font-family: Roboto;letter-spacing: 2.7272726681606843px">HUB</text>
  <text transform="translate(566.69 169.53) scale(1 1.2)" style="font-size: 72px;fill: #ef4136;font-family: Fenix BlackletterCaps;letter-spacing: 1px">A<tspan x="88.85" y="0" style="letter-spacing: 5px">U</tspan><tspan x="168.26" y="0" style="letter-spacing: 5px">T</tspan><tspan x="244.8" y="0" style="letter-spacing: 5px">O</tspan><tspan style="letter-spacing: 5px"><tspan x="0" y="72">S</tspan><tspan x="77.11" y="72" style="letter-spacing: 6px">E</tspan><tspan x="148.75" y="72">NSOR</tspan></tspan></text>
</svg>
